<?xml version="1.0" encoding="utf-8"?>
<!-- Generator: Adobe Illustrator 16.0.0, SVG Export Plug-In . SVG Version: 6.00 Build 0)  -->
<!DOCTYPE svg PUBLIC "-//W3C//DTD SVG 1.1//EN" "http://www.w3.org/Graphics/SVG/1.1/DTD/svg11.dtd">
<svg version="1.1" id="Layer_1" xmlns="http://www.w3.org/2000/svg" xmlns:xlink="http://www.w3.org/1999/xlink" x="0px" y="0px"
	 width="784.577px" height="180.143px" viewBox="0 0 784.577 180.143" enable-background="new 0 0 784.577 180.143"
	 xml:space="preserve">
<g>
	<g>
		<g>
			<polygon fill="#FFFFFF" points="295.54,15.647 295.54,34.289 260.911,34.289 260.911,120.866 236.561,120.866 236.561,34.289 
				201.788,34.289 201.788,15.647 			"/>
			<path fill="#FFFFFF" d="M362.715,43.49c4.298,1.674,7.826,4.212,10.593,7.664c2.358,2.892,3.785,5.88,4.301,8.97
				c0.528,3.049,0.787,8.065,0.787,15.014v45.729h-22.864V73.491c0-4.2-0.766-7.575-2.321-10.148
				c-2.028-3.614-5.864-5.43-11.534-5.43c-5.88,0-10.347,1.803-13.373,5.389c-3.032,3.608-4.554,8.732-4.554,15.409v42.156h-22.377
				V16.001h22.377v37.133c3.237-4.525,6.973-7.677,11.217-9.459c4.25-1.791,8.71-2.682,13.396-2.682
				C353.632,40.993,358.424,41.836,362.715,43.49"/>
			<rect x="386.479" y="15.633" fill="#049CD8" width="22.676" height="20.54"/>
			<rect x="386.479" y="43.061" fill="#FFFFFF" width="22.676" height="77.806"/>
			<path fill="#FFFFFF" d="M486.538,47.519c5.611,4.212,8.413,11.202,8.413,20.956v52.392h-22.929V73.539
				c0-4.084-0.588-7.229-1.784-9.413c-2.191-4.002-6.34-5.996-12.478-5.996c-7.537,0-12.697,2.913-15.51,8.78
				c-1.464,3.089-2.172,7.043-2.172,11.842v42.115h-22.38V43.211h21.666v11.353c2.856-4.002,5.567-6.882,8.127-8.65
				c4.597-3.138,10.4-4.696,17.436-4.696C473.747,41.217,480.951,43.313,486.538,47.519"/>
			<polygon fill="#FFFFFF" points="504.908,16.001 526.871,16.001 526.871,72.762 555.108,43.428 582.924,43.428 552.256,72.401 
				584.119,120.866 556.891,120.866 536.15,87.619 526.871,96.393 526.871,120.866 504.908,120.866 			"/>
			<polygon fill="#049CD8" points="648.847,15.633 648.847,34.248 614.231,34.248 614.231,120.846 589.886,120.846 589.886,34.248 
				555.108,34.248 555.108,15.633 			"/>
			<path fill="#049CD8" d="M662.876,73.518c4.183-0.47,7.147-1.076,8.944-1.784c3.236-1.231,4.832-3.171,4.832-5.786
				c0-3.191-1.252-5.382-3.706-6.588c-2.459-1.231-6.082-1.837-10.852-1.837c-5.36,0-9.168,1.197-11.383,3.586
				c-1.599,1.756-2.654,4.132-3.198,7.113h-21.568c0.445-6.793,2.555-12.374,6.295-16.771c5.928-6.853,16.136-10.263,30.602-10.263
				c9.406,0,17.75,1.688,25.084,5.05c7.292,3.396,10.937,9.766,10.937,19.145v35.684c0,2.477,0.062,5.478,0.169,8.998
				c0.164,2.661,0.6,4.457,1.318,5.43c0.744,0.946,1.847,1.722,3.318,2.348v3.001h-24.345c-0.705-1.565-1.154-3.063-1.413-4.43
				c-0.265-1.382-0.477-2.948-0.612-4.696c-3.142,3.036-6.704,5.628-10.771,7.771c-4.828,2.519-10.297,3.771-16.405,3.771
				c-7.804,0-14.245-1.994-19.322-6.03c-5.074-4.016-7.619-9.712-7.619-17.096c0-9.55,4.081-16.485,12.281-20.766
				c4.46-2.355,11.05-4.002,19.757-5.002L662.876,73.518z M676.566,83.005c-1.43,0.817-2.872,1.478-4.342,1.96
				c-1.452,0.511-3.46,0.973-5.996,1.396l-5.1,0.857c-4.765,0.763-8.202,1.708-10.273,2.791c-3.53,1.851-5.309,4.73-5.309,8.637
				c0,3.465,1.081,5.989,3.253,7.527c2.153,1.546,4.76,2.314,7.84,2.314c4.896,0,9.399-1.286,13.52-3.845
				c4.122-2.572,6.242-7.255,6.408-14.055V83.005z"/>
			<path fill="#049CD8" d="M761.647,70.951c-0.422-2.906-1.505-5.526-3.219-7.86c-2.546-3.111-6.453-4.717-11.734-4.717
				c-7.554,0-12.728,3.424-15.517,10.21c-1.471,3.641-2.192,8.418-2.192,14.387c0,5.71,0.722,10.263,2.192,13.749
				c2.668,6.472,7.73,9.706,15.122,9.706c5.24,0,8.984-1.288,11.176-3.86c2.205-2.565,3.539-5.907,4.007-9.991h22.835
				c-0.511,6.188-2.967,12.047-7.357,17.552c-7.031,8.91-17.431,13.347-31.219,13.347c-13.79,0-23.93-3.709-30.408-11.12
				c-6.507-7.426-9.747-17.056-9.747-28.877c0-13.333,3.58-23.747,10.766-31.159c7.167-7.417,17.07-11.127,29.695-11.127
				c10.761,0,19.54,2.177,26.387,6.574c6.833,4.383,10.889,12.095,12.141,23.188H761.647z"/>
		</g>
	</g>
	<g>
		<g>
			<g>
				<path fill="#049CD8" d="M37.28,26.427c0-4.042-3.28-7.33-7.344-7.33c-4.053,0-7.33,3.289-7.33,7.33
					c0,4.043,3.277,7.33,7.33,7.33C34,33.757,37.28,30.47,37.28,26.427z M137.664,43.401c0,3.819,3.109,6.916,6.925,6.916
					c3.817,0,6.911-3.097,6.911-6.916c0-3.811-3.094-6.908-6.911-6.908C140.773,36.493,137.664,39.59,137.664,43.401z
					 M22.885,43.456c0-3.811-3.08-6.887-6.894-6.887c-3.802,0-6.894,3.077-6.894,6.887c0,3.812,3.092,6.894,6.894,6.894
					C19.805,50.35,22.885,47.268,22.885,43.456z M48.227,21.792c4.202,0,7.612-3.416,7.612-7.636c0-4.192-3.41-7.609-7.612-7.609
					c-4.21,0-7.629,3.417-7.629,7.609C40.598,18.376,44.017,21.792,48.227,21.792z M146.694,63.744c0,3.485,2.825,6.309,6.302,6.309
					c3.479,0,6.302-2.824,6.302-6.309c0-3.491-2.824-6.316-6.302-6.316C149.52,57.428,146.694,60.253,146.694,63.744z
					 M104.723,14.149c0,4.214,3.409,7.629,7.633,7.629c4.199,0,7.626-3.416,7.626-7.629c0-4.219-3.427-7.629-7.626-7.629
					C108.132,6.52,104.723,9.93,104.723,14.149z M69.267,15.544c4.286,0,7.766-3.491,7.766-7.778s-3.48-7.759-7.766-7.759
					c-4.284,0-7.754,3.472-7.754,7.759S64.982,15.544,69.267,15.544z M123.279,26.387c0,4.062,3.308,7.356,7.354,7.356
					c4.055,0,7.351-3.294,7.351-7.356c0-4.057-3.295-7.344-7.351-7.344C126.587,19.043,123.279,22.331,123.279,26.387z M83.52,7.766
					c0,4.281,3.48,7.765,7.761,7.765c4.291,0,7.766-3.484,7.766-7.765C99.047,3.472,95.572,0,91.281,0C87,0,83.52,3.472,83.52,7.766
					z M146.232,107.227c0,2.512,2.039,4.566,4.556,4.566c2.526,0,4.556-2.054,4.556-4.566c0-2.511-2.03-4.546-4.556-4.546
					C148.271,102.681,146.232,104.716,146.232,107.227z M23.593,126.672c0-1.825-1.467-3.301-3.301-3.301
					c-1.828,0-3.301,1.476-3.301,3.301c0,1.83,1.473,3.301,3.301,3.301C22.125,129.973,23.593,128.502,23.593,126.672z
					 M137.038,126.604c0,1.837,1.486,3.328,3.321,3.328c1.837,0,3.33-1.491,3.33-3.328c0-1.825-1.493-3.308-3.33-3.308
					C138.524,123.296,137.038,124.779,137.038,126.604z M122.905,142.142c0,1.014,0.823,1.851,1.857,1.851
					c1.024,0,1.862-0.836,1.862-1.851c0-1.035-0.838-1.857-1.862-1.857C123.728,140.284,122.905,141.107,122.905,142.142z
					 M37.745,142.183c0-1.035-0.816-1.857-1.837-1.857c-1.011,0-1.837,0.823-1.837,1.857c0,0.994,0.826,1.837,1.837,1.837
					C36.929,144.02,37.745,143.176,37.745,142.183z M14.388,107.295c0-2.511-2.035-4.539-4.541-4.539
					c-2.504,0-4.539,2.028-4.539,4.539c0,2.504,2.035,4.532,4.539,4.532C12.353,111.828,14.388,109.799,14.388,107.295z
					 M149.574,85.666c0,3.029,2.47,5.519,5.529,5.519c3.056,0,5.522-2.49,5.522-5.519c0-3.083-2.466-5.546-5.522-5.546
					C152.044,80.12,149.574,82.583,149.574,85.666z M13.891,63.792c0-3.472-2.81-6.261-6.285-6.261c-3.467,0-6.278,2.79-6.278,6.261
					c0,3.491,2.812,6.302,6.278,6.302C11.081,70.094,13.891,67.283,13.891,63.792z M11.026,85.721c0-3.049-2.478-5.526-5.517-5.526
					C2.471,80.195,0,82.671,0,85.721c0,3.029,2.471,5.492,5.509,5.492C8.548,91.212,11.026,88.75,11.026,85.721z"/>
			</g>
		</g>
		<path fill="#FFFFFF" d="M80.327,39.732c4.308,0,7.793-3.491,7.793-7.806c0-4.308-3.485-7.807-7.793-7.807
			s-7.799,3.499-7.799,7.807C72.528,36.242,76.019,39.732,80.327,39.732z M49.128,49.765c0-3.913-3.157-7.072-7.065-7.072
			c-3.906,0-7.074,3.159-7.074,7.072c0,3.899,3.167,7.072,7.074,7.072C45.971,56.836,49.128,53.664,49.128,49.765z M66.811,36.596
			c0-4.193-3.407-7.602-7.599-7.602c-4.2,0-7.599,3.409-7.599,7.602c0,4.192,3.398,7.602,7.599,7.602
			C63.404,44.198,66.811,40.788,66.811,36.596z M93.82,36.609c0,4.192,3.402,7.602,7.602,7.602c4.209,0,7.626-3.41,7.626-7.602
			c0-4.207-3.417-7.616-7.626-7.616C97.222,28.994,93.82,32.402,93.82,36.609z M118.424,110.521c0,1.532,1.238,2.764,2.766,2.764
			c1.532,0,2.771-1.231,2.771-2.764c0-1.524-1.238-2.783-2.771-2.783C119.662,107.738,118.424,108.997,118.424,110.521z
			 M125.672,49.778c0-3.913-3.189-7.085-7.099-7.085c-3.934,0-7.092,3.172-7.092,7.085c0,3.92,3.159,7.092,7.092,7.092
			C122.482,56.871,125.672,53.698,125.672,49.778z M38.185,68.937c0-3.375-2.743-6.125-6.112-6.125c-3.375,0-6.118,2.75-6.118,6.125
			c0,3.376,2.743,6.112,6.118,6.112C35.441,75.049,38.185,72.313,38.185,68.937z M42.166,110.507c0-1.531-1.245-2.776-2.753-2.776
			c-1.517,0-2.759,1.245-2.759,2.776c0,1.512,1.242,2.764,2.759,2.764C40.921,113.271,42.166,112.019,42.166,110.507z
			 M134.213,90.559c0-2.613-2.114-4.736-4.73-4.736c-2.61,0-4.744,2.123-4.744,4.736c0,2.608,2.134,4.73,4.744,4.73
			C132.099,95.29,134.213,93.167,134.213,90.559z M35.836,90.532c0-2.586-2.09-4.708-4.7-4.708c-2.603,0-4.724,2.123-4.724,4.708
			c0,2.601,2.121,4.717,4.724,4.717C33.747,95.249,35.836,93.133,35.836,90.532z M134.688,68.937c0-3.375-2.755-6.125-6.131-6.125
			c-3.396,0-6.15,2.75-6.15,6.125c0,3.396,2.753,6.146,6.15,6.146C131.933,75.083,134.688,72.333,134.688,68.937z"/>
	</g>
	<path fill="#049CD8" d="M91.37,97.768c0,5.791-4.689,10.474-10.461,10.474c-5.781,0-10.45-4.683-10.45-10.474
		c0-5.772,4.669-10.455,10.45-10.455C86.68,87.313,91.37,91.996,91.37,97.768z"/>
	<g>
		<g>
			<g>
				<path fill="#FFFFFF" d="M81.211,147.199c-16.058,0-29.112-12.557-29.717-28.605l8.096-0.313
					c0.452,11.679,9.94,20.833,21.621,20.833c11.792,0,21.487-9.61,21.619-21.397l8.117,0.094
					C110.757,134.009,97.414,147.199,81.211,147.199z"/>
			</g>
		</g>
	</g>
	<g>
		<g>
			<g>
				<path fill="#FFFFFF" d="M81.211,132.689c-8.276,0-14.999-6.48-15.312-14.756l8.098-0.313c0.15,3.913,3.314,6.969,7.214,6.969
					c3.935,0,7.181-3.212,7.219-7.161l8.108,0.096C96.444,125.882,89.572,132.689,81.211,132.689z"/>
			</g>
		</g>
	</g>
	<g>
		<text transform="matrix(1.0035 0 0 1 419.3965 170.5986)"><tspan x="0" y="0" fill="#FFFFFF" font-family="'HelveticaNeueLTPro-Md'" font-size="38.1769">Create</tspan><tspan x="103.915" y="0" fill="#282B66" font-family="'HelveticaNeueLTPro-Md'" font-size="38.1769"> </tspan><tspan x="112.009" y="0" fill="#049CD8" font-family="'HelveticaNeueLTPro-Md'" font-size="38.1769">|</tspan><tspan x="121.133" y="0" fill="#282B66" font-family="'HelveticaNeueLTPro-Md'" font-size="38.1769"> </tspan><tspan x="129.226" y="0" fill="#FFFFFF" font-family="'HelveticaNeueLTPro-Md'" font-size="38.1769">Explore</tspan><tspan x="248.985" y="0" fill="#282B66" font-family="'HelveticaNeueLTPro-Md'" font-size="38.1769"> </tspan><tspan x="257.078" y="0" fill="#049CD8" font-family="'HelveticaNeueLTPro-Md'" font-size="38.1769">|</tspan><tspan x="266.202" y="0" fill="#282B66" font-family="'HelveticaNeueLTPro-Md'" font-size="38.1769"> </tspan><tspan x="274.295" y="0" fill="#FFFFFF" font-family="'HelveticaNeueLTPro-Md'" font-size="38.1769">Learn</tspan></text>
	</g>
</g>
</svg>
