<?xml version="1.0" encoding="utf-8"?>
<!-- Generator: Adobe Illustrator 16.0.0, SVG Export Plug-In . SVG Version: 6.00 Build 0)  -->
<!DOCTYPE svg PUBLIC "-//W3C//DTD SVG 1.1//EN" "http://www.w3.org/Graphics/SVG/1.1/DTD/svg11.dtd">
<svg version="1.1" id="Layer_1" xmlns="http://www.w3.org/2000/svg" xmlns:xlink="http://www.w3.org/1999/xlink" x="0px" y="0px"
	 width="160.626px" height="147.199px" viewBox="0 0 160.626 147.199" enable-background="new 0 0 160.626 147.199"
	 xml:space="preserve">
<g>
	<g>
		<g>
			<g>
				<path fill="#049CD8" d="M37.28,26.427c0-4.042-3.28-7.33-7.344-7.33c-4.053,0-7.33,3.289-7.33,7.33
					c0,4.043,3.277,7.33,7.33,7.33C34,33.757,37.28,30.47,37.28,26.427z M137.664,43.4c0,3.819,3.109,6.916,6.925,6.916
					c3.817,0,6.911-3.097,6.911-6.916c0-3.811-3.094-6.907-6.911-6.907C140.773,36.493,137.664,39.59,137.664,43.4z M22.885,43.455
					c0-3.811-3.08-6.887-6.894-6.887c-3.802,0-6.894,3.076-6.894,6.887c0,3.813,3.092,6.895,6.894,6.895
					C19.805,50.35,22.885,47.268,22.885,43.455z M48.227,21.792c4.202,0,7.612-3.416,7.612-7.636c0-4.192-3.41-7.609-7.612-7.609
					c-4.21,0-7.629,3.417-7.629,7.609C40.598,18.376,44.017,21.792,48.227,21.792z M146.694,63.744c0,3.485,2.825,6.309,6.302,6.309
					c3.479,0,6.302-2.823,6.302-6.309c0-3.49-2.824-6.316-6.302-6.316C149.52,57.428,146.694,60.254,146.694,63.744z
					 M104.723,14.149c0,4.214,3.409,7.629,7.633,7.629c4.199,0,7.626-3.416,7.626-7.629c0-4.219-3.427-7.629-7.626-7.629
					C108.132,6.52,104.723,9.93,104.723,14.149z M69.267,15.544c4.286,0,7.766-3.491,7.766-7.778s-3.48-7.759-7.766-7.759
					c-4.284,0-7.754,3.472-7.754,7.759S64.982,15.544,69.267,15.544z M123.279,26.387c0,4.062,3.308,7.356,7.354,7.356
					c4.055,0,7.351-3.294,7.351-7.356c0-4.057-3.295-7.344-7.351-7.344C126.587,19.043,123.279,22.331,123.279,26.387z M83.52,7.766
					c0,4.281,3.48,7.765,7.761,7.765c4.291,0,7.766-3.484,7.766-7.765C99.047,3.472,95.572,0,91.281,0C87,0,83.52,3.472,83.52,7.766
					z M146.232,107.227c0,2.513,2.039,4.566,4.556,4.566c2.526,0,4.556-2.054,4.556-4.566c0-2.51-2.03-4.545-4.556-4.545
					C148.271,102.682,146.232,104.717,146.232,107.227z M23.593,126.672c0-1.825-1.467-3.301-3.301-3.301
					c-1.828,0-3.301,1.477-3.301,3.301c0,1.83,1.473,3.3,3.301,3.3C22.125,129.973,23.593,128.502,23.593,126.672z M137.038,126.604
					c0,1.837,1.486,3.328,3.321,3.328c1.837,0,3.33-1.49,3.33-3.328c0-1.825-1.493-3.307-3.33-3.307
					C138.524,123.297,137.038,124.779,137.038,126.604z M122.905,142.141c0,1.016,0.823,1.852,1.857,1.852
					c1.024,0,1.862-0.836,1.862-1.852c0-1.033-0.838-1.857-1.862-1.857C123.728,140.283,122.905,141.107,122.905,142.141z
					 M37.745,142.182c0-1.033-0.816-1.857-1.837-1.857c-1.011,0-1.837,0.824-1.837,1.857c0,0.994,0.826,1.838,1.837,1.838
					C36.929,144.02,37.745,143.176,37.745,142.182z M14.388,107.295c0-2.51-2.035-4.539-4.541-4.539
					c-2.504,0-4.539,2.029-4.539,4.539c0,2.504,2.035,4.533,4.539,4.533C12.353,111.828,14.388,109.799,14.388,107.295z
					 M149.574,85.666c0,3.029,2.47,5.52,5.529,5.52c3.056,0,5.522-2.49,5.522-5.52c0-3.084-2.466-5.547-5.522-5.547
					C152.044,80.119,149.574,82.582,149.574,85.666z M13.891,63.792c0-3.472-2.81-6.261-6.285-6.261
					c-3.467,0-6.278,2.789-6.278,6.261c0,3.491,2.812,6.302,6.278,6.302C11.081,70.094,13.891,67.283,13.891,63.792z M11.026,85.721
					c0-3.049-2.478-5.525-5.517-5.525C2.471,80.195,0,82.672,0,85.721c0,3.029,2.471,5.492,5.509,5.492
					C8.548,91.213,11.026,88.75,11.026,85.721z"/>
			</g>
		</g>
		<path fill="#282B66" d="M80.327,39.732c4.308,0,7.793-3.49,7.793-7.806c0-4.308-3.485-7.807-7.793-7.807s-7.799,3.499-7.799,7.807
			C72.528,36.242,76.019,39.732,80.327,39.732z M49.128,49.765c0-3.913-3.157-7.071-7.065-7.071c-3.906,0-7.074,3.158-7.074,7.071
			c0,3.899,3.167,7.071,7.074,7.071C45.971,56.836,49.128,53.664,49.128,49.765z M66.811,36.596c0-4.193-3.407-7.602-7.599-7.602
			c-4.2,0-7.599,3.409-7.599,7.602c0,4.191,3.398,7.602,7.599,7.602C63.404,44.197,66.811,40.787,66.811,36.596z M93.82,36.609
			c0,4.191,3.402,7.602,7.602,7.602c4.209,0,7.626-3.41,7.626-7.602c0-4.207-3.417-7.616-7.626-7.616
			C97.222,28.994,93.82,32.402,93.82,36.609z M118.424,110.521c0,1.531,1.238,2.764,2.766,2.764c1.532,0,2.771-1.232,2.771-2.764
			c0-1.524-1.238-2.783-2.771-2.783C119.662,107.738,118.424,108.997,118.424,110.521z M125.672,49.778
			c0-3.913-3.189-7.085-7.099-7.085c-3.934,0-7.092,3.172-7.092,7.085c0,3.92,3.159,7.093,7.092,7.093
			C122.482,56.871,125.672,53.698,125.672,49.778z M38.185,68.937c0-3.374-2.743-6.124-6.112-6.124c-3.375,0-6.118,2.75-6.118,6.124
			c0,3.376,2.743,6.112,6.118,6.112C35.441,75.049,38.185,72.313,38.185,68.937z M42.166,110.508c0-1.531-1.245-2.776-2.753-2.776
			c-1.517,0-2.759,1.245-2.759,2.776c0,1.512,1.242,2.764,2.759,2.764C40.921,113.271,42.166,112.02,42.166,110.508z
			 M134.213,90.559c0-2.613-2.114-4.735-4.73-4.735c-2.61,0-4.744,2.122-4.744,4.735c0,2.608,2.134,4.73,4.744,4.73
			C132.099,95.289,134.213,93.167,134.213,90.559z M35.836,90.531c0-2.586-2.09-4.708-4.7-4.708c-2.603,0-4.724,2.122-4.724,4.708
			c0,2.602,2.121,4.717,4.724,4.717C33.747,95.248,35.836,93.133,35.836,90.531z M134.688,68.937c0-3.374-2.755-6.124-6.131-6.124
			c-3.396,0-6.15,2.75-6.15,6.124c0,3.396,2.753,6.146,6.15,6.146C131.933,75.083,134.688,72.333,134.688,68.937z"/>
	</g>
	<path fill="#049CD8" d="M91.37,97.768c0,5.791-4.689,10.474-10.461,10.474c-5.781,0-10.45-4.683-10.45-10.474
		c0-5.771,4.669-10.455,10.45-10.455C86.68,87.313,91.37,91.996,91.37,97.768z"/>
	<g>
		<g>
			<g>
				<path fill="#282B66" d="M81.211,147.199c-16.058,0-29.112-12.557-29.717-28.605l8.096-0.313
					c0.452,11.679,9.94,20.833,21.621,20.833c11.792,0,21.487-9.611,21.619-21.397l8.117,0.095
					C110.757,134.01,97.414,147.199,81.211,147.199z"/>
			</g>
		</g>
	</g>
	<g>
		<g>
			<g>
				<path fill="#282B66" d="M81.211,132.689c-8.276,0-14.999-6.48-15.312-14.756l8.098-0.313c0.15,3.913,3.314,6.97,7.214,6.97
					c3.935,0,7.181-3.213,7.219-7.161l8.108,0.096C96.444,125.883,89.572,132.689,81.211,132.689z"/>
			</g>
		</g>
	</g>
</g>
</svg>
