<?xml version="1.0" encoding="utf-8"?>
<!-- Generator: Adobe Illustrator 16.0.0, SVG Export Plug-In . SVG Version: 6.00 Build 0)  -->
<!DOCTYPE svg PUBLIC "-//W3C//DTD SVG 1.1//EN" "http://www.w3.org/Graphics/SVG/1.1/DTD/svg11.dtd">
<svg version="1.1" id="Layer_1" xmlns="http://www.w3.org/2000/svg" xmlns:xlink="http://www.w3.org/1999/xlink" x="0px" y="0px"
	 width="2403.438px" height="670px" viewBox="0 0 2403.438 670" enable-background="new 0 0 2403.438 670" xml:space="preserve">
<g>
	<g>
		<g>
			<g>
				<polygon fill="#FFFFFF" points="991.255,183.525 991.255,234.638 896.344,234.638 896.344,471.897 829.628,471.897 
					829.628,234.638 734.331,234.638 734.331,183.525 				"/>
				<path fill="#FFFFFF" d="M1175.343,259.837c11.781,4.594,21.448,11.56,29.04,21.007c6.45,7.921,10.355,16.118,11.78,24.591
					c1.443,8.345,2.151,22.092,2.151,41.133v125.329h-62.656V342.065c0-11.524-2.095-20.75-6.358-27.827
					c-5.551-9.906-16.083-14.868-31.595-14.868c-16.128,0-28.368,4.925-36.676,14.777c-8.298,9.87-12.479,23.93-12.479,42.236
					v115.514h-61.306V184.5h61.306v101.785c8.904-12.406,19.124-21.063,30.739-25.933c11.67-4.926,23.884-7.352,36.712-7.352
					C1150.448,252.999,1163.571,255.315,1175.343,259.837"/>
				<rect x="1240.471" y="258.678" fill="#FFFFFF" width="62.141" height="213.219"/>
				<path fill="#FFFFFF" d="M1514.68,270.864c15.375,11.56,23.049,30.729,23.049,57.454v143.579h-62.838V342.193
					c0-11.21-1.609-19.794-4.879-25.785c-6.012-10.973-17.389-16.451-34.197-16.451c-20.666,0-34.811,7.997-42.51,24.06
					c-4.016,8.473-5.945,19.316-5.945,32.458v115.422h-61.334V259.083h59.357v31.097c7.838-10.954,15.271-18.838,22.275-23.69
					c12.607-8.602,28.516-12.884,47.787-12.884C1479.613,253.606,1499.363,259.358,1514.68,270.864"/>
				<polygon fill="#FFFFFF" points="1565.014,184.5 1625.205,184.5 1625.205,340.062 1702.592,259.67 1778.82,259.67 
					1694.771,339.07 1782.102,471.897 1707.48,471.897 1650.643,380.772 1625.205,404.813 1625.205,471.897 1565.014,471.897 				
					"/>
				<polygon fill="#049CD8" points="1959.48,183.507 1959.48,234.528 1864.605,234.528 1864.605,471.824 1797.889,471.824 
					1797.889,234.528 1702.592,234.528 1702.592,183.507 				"/>
				<path fill="#049CD8" d="M1997.92,342.14c11.479-1.306,19.584-2.959,24.52-4.889c8.857-3.382,13.242-8.694,13.242-15.862
					c0-8.749-3.438-14.759-10.154-18.048c-6.738-3.383-16.672-5.036-29.729-5.036c-14.695,0-25.145,3.289-31.209,9.813
					c-4.383,4.834-7.287,11.322-8.768,19.5h-59.098c1.213-18.618,7.012-33.909,17.23-45.966
					c16.266-18.766,44.238-28.102,83.865-28.102c25.785,0,48.641,4.612,68.729,13.821c20.016,9.318,29.994,26.778,29.994,52.473
					v97.778c0,6.8,0.186,15.034,0.471,24.665c0.439,7.296,1.645,12.222,3.602,14.887c2.059,2.592,5.063,4.706,9.088,6.433v8.217
					h-66.707c-1.92-4.283-3.17-8.399-3.869-12.131c-0.727-3.768-1.314-8.068-1.672-12.865c-8.592,8.325-18.371,15.42-29.525,21.301
					c-13.227,6.912-28.213,10.33-44.949,10.33c-21.393,0-39.027-5.458-52.949-16.523c-13.914-11.009-20.889-26.614-20.889-46.868
					c0-26.172,11.193-45.139,33.672-56.884c12.221-6.452,30.27-10.991,54.135-13.711L1997.92,342.14z M2035.441,368.146
					c-3.904,2.224-7.865,4.043-11.891,5.348c-3.988,1.416-9.502,2.684-16.432,3.823l-13.986,2.372
					c-13.059,2.076-22.479,4.687-28.139,7.626c-9.678,5.073-14.564,12.976-14.564,23.672c0,9.521,2.967,16.432,8.932,20.642
					c5.871,4.226,13.049,6.322,21.457,6.322c13.426,0,25.768-3.511,37.072-10.513c11.293-7.076,17.092-19.905,17.551-38.542V368.146
					z"/>
				<path fill="#049CD8" d="M2268.613,335.082c-1.15-7.94-4.127-15.145-8.824-21.523c-6.984-8.528-17.689-12.921-32.154-12.921
					c-20.713,0-34.885,9.374-42.529,27.992c-4.035,9.98-6.02,23.048-6.02,39.405c0,15.66,1.984,28.139,6.02,37.678
					c7.295,17.736,21.191,26.596,41.445,26.596c14.355,0,24.609-3.53,30.619-10.568c6.039-7.021,9.715-16.192,11.002-27.386h62.572
					c-1.416,16.964-8.133,33.01-20.164,48.1c-19.289,24.426-47.768,36.574-85.564,36.574c-37.77,0-65.576-10.164-83.322-30.473
					c-17.838-20.345-26.715-46.739-26.715-79.142c0-36.538,9.814-65.081,29.518-85.39c19.619-20.31,46.766-30.473,81.365-30.473
					c29.48,0,53.539,5.955,72.324,18.011c18.709,12.002,29.818,33.139,33.256,63.521H2268.613z"/>
			</g>
		</g>
		<path fill="#049CD8" d="M1302.602,214.09c0,17.167-13.904,31.043-30.996,31.043c-17.139,0-30.969-13.876-30.969-31.043
			c0-17.074,13.83-30.969,30.969-30.969C1288.697,183.121,1302.602,197.016,1302.602,214.09z"/>
	</g>
	<g>
		<g>
			<g>
				<path fill="#FFFFFF" d="M354.19,231.348c13.592,0,24.574-11.01,24.574-24.61s-10.982-24.628-24.574-24.628
					c-13.592,0-24.601,11.027-24.601,24.628S340.598,231.348,354.19,231.348z M255.75,262.997c0-12.333-9.942-22.294-22.275-22.294
					c-12.333,0-22.312,9.961-22.312,22.294c0,12.314,9.979,22.332,22.312,22.332C245.807,285.329,255.75,275.311,255.75,262.997z
					 M311.541,221.46c0-13.234-10.743-23.985-23.976-23.985c-13.242,0-23.967,10.75-23.967,23.985
					c0,13.214,10.725,23.985,23.967,23.985C300.797,245.445,311.541,234.675,311.541,221.46z M396.757,221.497
					c0,13.233,10.742,23.985,23.994,23.985c13.279,0,24.068-10.752,24.068-23.985c0-13.271-10.789-24.021-24.068-24.021
					C407.499,197.476,396.757,208.226,396.757,221.497z M497.254,263.034c0-12.333-10.063-22.332-22.404-22.332
					c-12.397,0-22.367,9.999-22.367,22.332c0,12.387,9.97,22.386,22.367,22.386C487.192,285.42,497.254,275.421,497.254,263.034z
					 M221.234,323.503c0-10.661-8.657-19.336-19.298-19.336c-10.642,0-19.29,8.675-19.29,19.336c0,10.641,8.648,19.28,19.29,19.28
					C212.577,342.783,221.234,334.144,221.234,323.503z M237.664,454.658c0-6.985-5.669-12.646-12.553-12.646
					c-6.911,0-12.571,5.66-12.571,12.646c0,6.892,5.66,12.588,12.571,12.588C231.995,467.246,237.664,461.55,237.664,454.658z
					 M495.618,454.658c0-6.985-5.679-12.646-12.57-12.646c-6.893,0-12.563,5.66-12.563,12.646c0,6.892,5.67,12.588,12.563,12.588
					C489.939,467.246,495.618,461.55,495.618,454.658z M524.2,391.708c0-8.233-6.672-14.923-14.925-14.923
					c-8.233,0-14.961,6.69-14.961,14.923c0,8.235,6.728,14.943,14.961,14.943C517.527,406.651,524.2,399.942,524.2,391.708z
					 M213.827,391.635c0-8.161-6.6-14.851-14.841-14.851c-8.207,0-14.897,6.69-14.897,14.851c0,8.197,6.691,14.868,14.897,14.868
					C207.228,406.503,213.827,399.832,213.827,391.635z M525.706,323.503c0-10.661-8.692-19.336-19.344-19.336
					c-10.724,0-19.418,8.675-19.418,19.336c0,10.715,8.694,19.39,19.418,19.39C517.013,342.893,525.706,334.218,525.706,323.503z"/>
			</g>
			<g>
				<defs>
					<rect id="SVGID_1_" x="248.049" y="492.593" width="210.315" height="101.362"/>
				</defs>
				<clipPath id="SVGID_2_">
					<use xlink:href="#SVGID_1_"  overflow="visible"/>
				</clipPath>
				<g clip-path="url(#SVGID_2_)">
					<g>
						<g>
							<path fill="#FFFFFF" d="M353.051,592.76c-56.224,0-101.924-43.963-104.064-100.167l28.358-1.085
								c1.581,40.895,34.811,72.947,75.706,72.947c41.28,0,75.227-33.67,75.686-74.932l28.424,0.331
								C456.489,546.572,409.787,592.76,353.051,592.76z"/>
						</g>
					</g>
				</g>
				<g clip-path="url(#SVGID_2_)">
					<g>
						<g>
							<path fill="#FFFFFF" d="M353.051,541.941c-28.966,0-52.51-22.662-53.613-51.647l28.35-1.102
								c0.533,13.693,11.606,24.39,25.263,24.39c13.784,0,25.134-11.248,25.271-25.069l28.396,0.35
								C406.387,518.122,382.329,541.941,353.051,541.941z"/>
						</g>
					</g>
				</g>
			</g>
		</g>
		<g>
			<g>
				<path fill="#049CD8" d="M200.318,162.37c0-14.465-11.745-26.265-26.319-26.265c-14.52,0-26.247,11.8-26.247,26.265
					c0,14.483,11.727,26.246,26.247,26.246C188.573,188.616,200.318,176.853,200.318,162.37z M559.855,223.169
					c0,13.673,11.138,24.776,24.812,24.776c13.665,0,24.738-11.103,24.738-24.776c0-13.657-11.073-24.757-24.738-24.757
					C570.993,198.413,559.855,209.513,559.855,223.169z M148.745,223.372c0-13.638-11.027-24.684-24.683-24.684
					c-13.629,0-24.683,11.046-24.683,24.684c0,13.656,11.054,24.702,24.683,24.702C137.718,248.073,148.745,237.027,148.745,223.372
					z M239.521,145.755c15.052,0,27.266-12.222,27.266-27.33c0-15.015-12.213-27.256-27.266-27.256
					c-15.089,0-27.321,12.241-27.321,27.256C212.2,133.533,224.432,145.755,239.521,145.755z M592.221,296.025
					c0,12.499,10.108,22.606,22.542,22.606c12.47,0,22.598-10.108,22.598-22.606c0-12.497-10.128-22.606-22.598-22.606
					C602.33,273.418,592.221,283.528,592.221,296.025z M441.878,118.407c0,15.09,12.204,27.312,27.339,27.312
					c15.035,0,27.303-12.222,27.303-27.312c0-15.126-12.268-27.348-27.303-27.348C454.082,91.059,441.878,103.281,441.878,118.407z
					 M314.885,123.388c15.357,0,27.817-12.479,27.817-27.863c0-15.347-12.46-27.791-27.817-27.791
					c-15.355,0-27.78,12.443-27.78,27.791C287.105,110.908,299.529,123.388,314.885,123.388z M508.338,162.223
					c0,14.557,11.835,26.375,26.337,26.375c14.52,0,26.318-11.817,26.318-26.375c0-14.52-11.799-26.301-26.318-26.301
					C520.173,135.922,508.338,147.704,508.338,162.223z M365.925,95.525c0,15.347,12.462,27.826,27.791,27.826
					c15.374,0,27.835-12.479,27.835-27.826c0-15.384-12.461-27.808-27.835-27.808C378.387,67.717,365.925,80.141,365.925,95.525z
					 M588.674,451.79c0,10.017,8.142,18.232,18.195,18.232c10.091,0,18.196-8.216,18.196-18.232
					c0-10.053-8.105-18.177-18.196-18.177C596.815,433.613,588.674,441.737,588.674,451.79z M84.068,451.79
					c0,10.017,8.143,18.232,18.215,18.232c10.081,0,18.195-8.216,18.195-18.232c0-10.053-8.115-18.177-18.195-18.177
					C92.211,433.613,84.068,441.737,84.068,451.79z M554.671,521.172c0,8.216,6.645,14.888,14.833,14.888
					c8.215,0,14.887-6.672,14.887-14.888c0-8.179-6.672-14.776-14.887-14.776C561.316,506.396,554.671,512.993,554.671,521.172z
					 M124.769,521.172c0,8.216,6.654,14.888,14.841,14.888c8.207,0,14.888-6.672,14.888-14.888c0-8.179-6.682-14.776-14.888-14.776
					C131.422,506.396,124.769,512.993,124.769,521.172z M525.669,576.99c0-6.653-5.275-11.965-11.873-11.965
					c-6.543,0-11.864,5.312-11.864,11.965c0,6.433,5.321,11.873,11.864,11.873C520.394,588.863,525.669,583.423,525.669,576.99z
					 M207.192,576.99c0-6.653-5.275-11.965-11.874-11.965c-6.543,0-11.863,5.312-11.863,11.965c0,6.433,5.32,11.873,11.863,11.873
					C201.917,588.863,207.192,583.423,207.192,576.99z M602.514,374.56c0,10.844,8.858,19.777,19.813,19.777
					c10.936,0,19.776-8.933,19.776-19.777c0-11.046-8.84-19.867-19.776-19.867C611.372,354.693,602.514,363.514,602.514,374.56z
					 M116.527,296.227c0-12.461-10.054-22.441-22.496-22.441c-12.435,0-22.507,9.98-22.507,22.441
					c0,12.48,10.072,22.57,22.507,22.57C106.473,318.797,116.527,308.708,116.527,296.227z M106.271,374.744
					c0-10.917-8.878-19.776-19.757-19.776c-10.871,0-19.73,8.859-19.73,19.776c0,10.862,8.859,19.666,19.73,19.666
					C97.393,394.41,106.271,385.606,106.271,374.744z"/>
			</g>
		</g>
	</g>
	<path fill="#049CD8" d="M402.858,415.711c0,26.577-21.522,48.081-48.044,48.081c-26.52,0-47.969-21.504-47.969-48.081
		c0-26.502,21.449-48.007,47.969-48.007C381.336,367.704,402.858,389.208,402.858,415.711z"/>
</g>
</svg>
